<svg width="404" height="143" viewBox="0 0 404 143" fill="none" xmlns="http://www.w3.org/2000/svg">
<rect width="404" height="143" fill="#E5E5E5"/>
<path d="M390 0H0V143H390V0Z" fill="#ECECEC"/>
<path d="M59.7068 24.6222H140.347V109.791H59.7068V24.6222Z" fill="#8AE897"/>
<path d="M171.528 39.9904V97.7751L161.306 109.786H140.347V24.6222H161.306L171.528 39.9904Z" fill="#6987A0"/>
<path d="M42.1863 32.3843H59.7068V102.029H42.1863V32.3843Z" fill="#6987A0"/>
<path d="M71.6977 38.3661H128.356V48.5253H71.6977V38.3661Z" fill="#6987A0"/>
<path d="M71.6977 62.127H128.356V72.2862H71.6977V62.127Z" fill="#6987A0"/>
<path d="M71.6977 85.8882H128.356V96.0475H71.6977V85.8882Z" fill="#6987A0"/>
<path d="M27.5447 44.4111H42.1864V90.0027H27.5447V44.4111Z" fill="#C5D9EC"/>
<path d="M64.7245 109.791H84.3951L89.4128 119.398V125.855H59.7068V119.398L64.7245 109.791Z" fill="#C5D9EC"/>
<path d="M135.669 109.791H155.34L160.357 119.398V125.855H130.651V119.398L135.669 109.791Z" fill="#C5D9EC"/>
<path d="M59.7068 24.6222H65.5009V109.791H59.7068V24.6222Z" fill="#00CE8B"/>
<path d="M140.347 24.6222H146.141V109.786H140.347V24.6222Z" fill="#57758D"/>
<path d="M42.1863 32.3844H47.9804V102.029H42.1863V32.3844Z" fill="#57758D"/>
<path d="M71.6977 38.3661H77.4918V48.525H71.6977V38.3661Z" fill="#57758D"/>
<path d="M71.6977 62.127H77.4918V72.2859H71.6977V62.127Z" fill="#57758D"/>
<path d="M71.6977 85.8882H77.4918V96.0474H71.6977V85.8882Z" fill="#57758D"/>
<path d="M27.5447 44.4111H33.3388V90.0027H27.5447V44.4111Z" fill="#85B0D7"/>
<path d="M70.5185 109.791H64.7245L59.7068 119.398V125.855H65.5009V119.398L70.5185 109.791Z" fill="#85B0D7"/>
<path d="M141.463 109.791H135.669L130.651 119.398V125.855H136.445V119.398L141.463 109.791Z" fill="#85B0D7"/>
<path d="M173.7 98.4951V39.4006L162.509 22.5715H57.5349V111.842H61.2309L57.534 118.921V127.905H91.5852V118.921L87.8883 111.842H132.175L128.478 118.921V127.905H162.529V118.921L158.83 111.837H162.348L173.7 98.4951ZM87.24 119.876V123.805H61.8798V119.876L66.0756 111.842H83.0442L87.24 119.876ZM158.184 123.805H132.824V119.876L137.02 111.842C139.859 111.842 139.835 111.841 153.988 111.841L158.184 119.876V123.805ZM142.52 107.737V38.7523H138.174V107.741L61.8804 107.742V26.6713H138.174V34.6524H142.52V26.6713H160.105L169.355 40.5806V97.0533L160.265 107.737H142.52Z" fill="black"/>
<path d="M40.0136 42.3602H25.3719V92.0533H40.0136V104.08H51.0166V99.9797H44.3592V81.7982H40.0136V87.9534H29.7175V46.46H40.0136V77.6983H44.3592V34.4337H51.0166V30.3339H40.0136V42.3602Z" fill="black"/>
<path d="M69.5249 50.5753H130.529V36.3162H69.5249V50.5753ZM73.8705 40.4161H126.183V46.4754H73.8705V40.4161Z" fill="black"/>
<path d="M69.5249 74.3363H130.529V60.0775H69.5249V74.3363ZM73.8705 64.1773H126.183V70.2364H73.8705V64.1773Z" fill="black"/>
<path d="M69.5249 98.0971H130.529V83.838H69.5249V98.0971ZM73.8705 87.9379H126.183V93.9972H73.8705V87.9379Z" fill="black"/>
<path d="M164.831 89.3649H160.485V64.2642H164.831V89.3649ZM164.831 60.1643H160.485V56.0644H164.831V60.1643ZM164.831 51.9646H160.485V47.8647H164.831V51.9646Z" fill="white"/>
<path d="M230.598 39.3691C230.443 41.5111 229.65 43.1973 228.219 44.4277C226.797 45.6582 224.919 46.2734 222.586 46.2734C220.034 46.2734 218.024 45.4167 216.557 43.7031C215.098 41.9805 214.369 39.6198 214.369 36.6211V35.4043C214.369 33.4902 214.706 31.804 215.381 30.3457C216.055 28.8874 217.017 27.7708 218.266 26.9961C219.523 26.2122 220.982 25.8203 222.641 25.8203C224.938 25.8203 226.788 26.4355 228.191 27.666C229.595 28.8965 230.406 30.6237 230.625 32.8477H226.523C226.423 31.5625 226.063 30.6328 225.443 30.0586C224.833 29.4753 223.898 29.1836 222.641 29.1836C221.273 29.1836 220.248 29.6758 219.564 30.6602C218.89 31.6354 218.544 33.153 218.525 35.2129V36.7168C218.525 38.8678 218.849 40.4401 219.496 41.4336C220.152 42.4271 221.182 42.9238 222.586 42.9238C223.853 42.9238 224.796 42.6367 225.416 42.0625C226.045 41.4792 226.405 40.5814 226.496 39.3691H230.598ZM249.643 36.498C249.643 38.4577 249.296 40.1758 248.604 41.6523C247.911 43.1289 246.917 44.2682 245.623 45.0703C244.338 45.8724 242.861 46.2734 241.193 46.2734C239.544 46.2734 238.072 45.877 236.777 45.084C235.483 44.291 234.48 43.1608 233.77 41.6934C233.059 40.2168 232.699 38.5215 232.689 36.6074V35.623C232.689 33.6634 233.04 31.9408 233.742 30.4551C234.453 28.9603 235.451 27.8164 236.736 27.0234C238.031 26.2214 239.507 25.8203 241.166 25.8203C242.825 25.8203 244.297 26.2214 245.582 27.0234C246.876 27.8164 247.874 28.9603 248.576 30.4551C249.287 31.9408 249.643 33.6589 249.643 35.6094V36.498ZM245.486 35.5957C245.486 33.5085 245.113 31.9225 244.365 30.8379C243.618 29.7533 242.551 29.2109 241.166 29.2109C239.79 29.2109 238.728 29.7487 237.98 30.8242C237.233 31.8906 236.855 33.4583 236.846 35.5273V36.498C236.846 38.5306 237.219 40.1074 237.967 41.2285C238.714 42.3496 239.79 42.9102 241.193 42.9102C242.57 42.9102 243.627 42.3724 244.365 41.2969C245.104 40.2122 245.477 38.6354 245.486 36.5664V35.5957ZM259.992 38.7129H256.725V46H252.623V26.0938H260.02C262.371 26.0938 264.185 26.6178 265.461 27.666C266.737 28.7142 267.375 30.1953 267.375 32.1094C267.375 33.4674 267.079 34.6022 266.486 35.5137C265.903 36.416 265.014 37.1361 263.82 37.6738L268.127 45.8086V46H263.725L259.992 38.7129ZM256.725 35.3906H260.033C261.063 35.3906 261.861 35.1309 262.426 34.6113C262.991 34.0827 263.273 33.3581 263.273 32.4375C263.273 31.4987 263.005 30.7604 262.467 30.2227C261.938 29.6849 261.122 29.416 260.02 29.416H256.725V35.3906ZM277.875 38.7129H274.607V46H270.506V26.0938H277.902C280.254 26.0938 282.068 26.6178 283.344 27.666C284.62 28.7142 285.258 30.1953 285.258 32.1094C285.258 33.4674 284.962 34.6022 284.369 35.5137C283.786 36.416 282.897 37.1361 281.703 37.6738L286.01 45.8086V46H281.607L277.875 38.7129ZM274.607 35.3906H277.916C278.946 35.3906 279.743 35.1309 280.309 34.6113C280.874 34.0827 281.156 33.3581 281.156 32.4375C281.156 31.4987 280.887 30.7604 280.35 30.2227C279.821 29.6849 279.005 29.416 277.902 29.416H274.607V35.3906ZM300.365 37.373H292.49V42.7051H301.732V46H288.389V26.0938H301.705V29.416H292.49V34.1602H300.365V37.373ZM320.326 46H316.225L308.24 32.9023V46H304.139V26.0938H308.24L316.238 39.2188V26.0938H320.326V46ZM338.482 29.416H332.385V46H328.283V29.416H322.268V26.0938H338.482V29.416ZM352.811 37.373H344.936V42.7051H354.178V46H340.834V26.0938H354.15V29.416H344.936V34.1602H352.811V37.373ZM218.58 79H214.479L206.494 65.9023V79H202.393V59.0938H206.494L214.492 72.2188V59.0938H218.58V79ZM238.514 69.498C238.514 71.4577 238.167 73.1758 237.475 74.6523C236.782 76.1289 235.788 77.2682 234.494 78.0703C233.209 78.8724 231.732 79.2734 230.064 79.2734C228.415 79.2734 226.943 78.877 225.648 78.084C224.354 77.291 223.352 76.1608 222.641 74.6934C221.93 73.2168 221.57 71.5215 221.561 69.6074V68.623C221.561 66.6634 221.911 64.9408 222.613 63.4551C223.324 61.9603 224.322 60.8164 225.607 60.0234C226.902 59.2214 228.378 58.8203 230.037 58.8203C231.696 58.8203 233.168 59.2214 234.453 60.0234C235.747 60.8164 236.745 61.9603 237.447 63.4551C238.158 64.9408 238.514 66.6589 238.514 68.6094V69.498ZM234.357 68.5957C234.357 66.5085 233.984 64.9225 233.236 63.8379C232.489 62.7533 231.423 62.2109 230.037 62.2109C228.661 62.2109 227.599 62.7487 226.852 63.8242C226.104 64.8906 225.726 66.4583 225.717 68.5273V69.498C225.717 71.5306 226.09 73.1074 226.838 74.2285C227.585 75.3496 228.661 75.9102 230.064 75.9102C231.441 75.9102 232.498 75.3724 233.236 74.2969C233.975 73.2122 234.348 71.6354 234.357 69.5664V68.5957ZM246.854 59.0938L251.967 73.5312L257.053 59.0938H262.439V79H258.324V73.5586L258.734 64.166L253.361 79H250.545L245.186 64.1797L245.596 73.5586V79H241.494V59.0938H246.854ZM270.383 79H266.281V59.0938H270.383V79ZM290.385 79H286.283L278.299 65.9023V79H274.197V59.0938H278.299L286.297 72.2188V59.0938H290.385V79ZM305.451 74.8984H298.26L296.893 79H292.531L299.941 59.0938H303.742L311.193 79H306.832L305.451 74.8984ZM299.367 71.5762H304.344L301.842 64.125L299.367 71.5762ZM317.154 75.7051H325.863V79H313.053V59.0938H317.154V75.7051ZM335.201 79V59.0938H341.326C343.076 59.0938 344.639 59.4902 346.016 60.2832C347.401 61.0671 348.481 62.1882 349.256 63.6465C350.031 65.0957 350.418 66.7454 350.418 68.5957V69.5117C350.418 71.362 350.035 73.0072 349.27 74.4473C348.513 75.8874 347.442 77.0039 346.057 77.7969C344.671 78.5898 343.108 78.9909 341.367 79H335.201ZM339.303 62.416V75.7051H341.285C342.889 75.7051 344.115 75.181 344.963 74.1328C345.811 73.0846 346.243 71.5853 346.262 69.6348V68.582C346.262 66.5586 345.842 65.0273 345.004 63.9883C344.165 62.9401 342.939 62.416 341.326 62.416H339.303ZM365.389 70.373H357.514V75.7051H366.756V79H353.412V59.0938H366.729V62.416H357.514V67.1602H365.389V70.373ZM226.223 92.0938L231.336 106.531L236.422 92.0938H241.809V112H237.693V106.559L238.104 97.166L232.73 112H229.914L224.555 97.1797L224.965 106.559V112H220.863V92.0938H226.223ZM261.742 102.498C261.742 104.458 261.396 106.176 260.703 107.652C260.01 109.129 259.017 110.268 257.723 111.07C256.438 111.872 254.961 112.273 253.293 112.273C251.643 112.273 250.171 111.877 248.877 111.084C247.583 110.291 246.58 109.161 245.869 107.693C245.158 106.217 244.798 104.521 244.789 102.607V101.623C244.789 99.6634 245.14 97.9408 245.842 96.4551C246.553 94.9603 247.551 93.8164 248.836 93.0234C250.13 92.2214 251.607 91.8203 253.266 91.8203C254.924 91.8203 256.396 92.2214 257.682 93.0234C258.976 93.8164 259.974 94.9603 260.676 96.4551C261.387 97.9408 261.742 99.6589 261.742 101.609V102.498ZM257.586 101.596C257.586 99.5085 257.212 97.9225 256.465 96.8379C255.717 95.7533 254.651 95.2109 253.266 95.2109C251.889 95.2109 250.827 95.7487 250.08 96.8242C249.333 97.8906 248.954 99.4583 248.945 101.527V102.498C248.945 104.531 249.319 106.107 250.066 107.229C250.814 108.35 251.889 108.91 253.293 108.91C254.669 108.91 255.727 108.372 256.465 107.297C257.203 106.212 257.577 104.635 257.586 102.566V101.596ZM278.531 95.416H272.434V112H268.332V95.416H262.316V92.0938H278.531V95.416ZM296.852 102.498C296.852 104.458 296.505 106.176 295.812 107.652C295.12 109.129 294.126 110.268 292.832 111.07C291.547 111.872 290.07 112.273 288.402 112.273C286.753 112.273 285.281 111.877 283.986 111.084C282.692 110.291 281.689 109.161 280.979 107.693C280.268 106.217 279.908 104.521 279.898 102.607V101.623C279.898 99.6634 280.249 97.9408 280.951 96.4551C281.662 94.9603 282.66 93.8164 283.945 93.0234C285.24 92.2214 286.716 91.8203 288.375 91.8203C290.034 91.8203 291.506 92.2214 292.791 93.0234C294.085 93.8164 295.083 94.9603 295.785 96.4551C296.496 97.9408 296.852 99.6589 296.852 101.609V102.498ZM292.695 101.596C292.695 99.5085 292.322 97.9225 291.574 96.8379C290.827 95.7533 289.76 95.2109 288.375 95.2109C286.999 95.2109 285.937 95.7487 285.189 96.8242C284.442 97.8906 284.064 99.4583 284.055 101.527V102.498C284.055 104.531 284.428 106.107 285.176 107.229C285.923 108.35 286.999 108.91 288.402 108.91C289.779 108.91 290.836 108.372 291.574 107.297C292.312 106.212 292.686 104.635 292.695 102.566V101.596ZM307.201 104.713H303.934V112H299.832V92.0938H307.229C309.58 92.0938 311.394 92.6178 312.67 93.666C313.946 94.7142 314.584 96.1953 314.584 98.1094C314.584 99.4674 314.288 100.602 313.695 101.514C313.112 102.416 312.223 103.136 311.029 103.674L315.336 111.809V112H310.934L307.201 104.713ZM303.934 101.391H307.242C308.272 101.391 309.07 101.131 309.635 100.611C310.2 100.083 310.482 99.3581 310.482 98.4375C310.482 97.4987 310.214 96.7604 309.676 96.2227C309.147 95.6849 308.331 95.416 307.229 95.416H303.934V101.391ZM329.691 103.373H321.816V108.705H331.059V112H317.715V92.0938H331.031V95.416H321.816V100.16H329.691V103.373ZM343.787 106.777C343.787 106.003 343.514 105.41 342.967 105C342.42 104.581 341.436 104.143 340.014 103.688C338.592 103.223 337.466 102.767 336.637 102.32C334.376 101.099 333.246 99.4538 333.246 97.3848C333.246 96.3092 333.547 95.3522 334.148 94.5137C334.759 93.666 335.63 93.0052 336.76 92.5312C337.899 92.0573 339.175 91.8203 340.588 91.8203C342.01 91.8203 343.277 92.0801 344.389 92.5996C345.501 93.11 346.362 93.8346 346.973 94.7734C347.592 95.7122 347.902 96.7786 347.902 97.9727H343.801C343.801 97.0612 343.514 96.3548 342.939 95.8535C342.365 95.3431 341.559 95.0879 340.52 95.0879C339.517 95.0879 338.738 95.3021 338.182 95.7305C337.626 96.1497 337.348 96.7057 337.348 97.3984C337.348 98.0456 337.671 98.5879 338.318 99.0254C338.975 99.4629 339.936 99.873 341.203 100.256C343.536 100.958 345.236 101.828 346.303 102.867C347.369 103.906 347.902 105.201 347.902 106.75C347.902 108.473 347.251 109.826 345.947 110.811C344.644 111.786 342.889 112.273 340.684 112.273C339.152 112.273 337.758 111.995 336.5 111.439C335.242 110.874 334.281 110.104 333.615 109.129C332.959 108.154 332.631 107.023 332.631 105.738H336.746C336.746 107.935 338.059 109.033 340.684 109.033C341.659 109.033 342.42 108.837 342.967 108.445C343.514 108.044 343.787 107.488 343.787 106.777Z" fill="#243A5A"/>
</svg>
